<?xml version="1.0" encoding="UTF-8" standalone="no"?><svg xmlns="http://www.w3.org/2000/svg" xmlns:xlink="http://www.w3.org/1999/xlink" contentScriptType="application/ecmascript" contentStyleType="text/css" height="539px" preserveAspectRatio="none" style="width:645px;height:539px;" version="1.1" viewBox="0 0 645 539" width="645px" zoomAndPan="magnify"><defs><filter height="300%" id="f1brfqt9o3l0e2" width="300%" x="-1" y="-1"><feGaussianBlur result="blurOut" stdDeviation="2.0"/><feColorMatrix in="blurOut" result="blurOut2" type="matrix" values="0 0 0 0 0 0 0 0 0 0 0 0 0 0 0 0 0 0 .4 0"/><feOffset dx="4.0" dy="4.0" in="blurOut2" result="blurOut3"/><feBlend in="SourceGraphic" in2="blurOut3" mode="normal"/></filter></defs><g><!--MD5=[23087fb8b60a9636ce8eff16cac0701e]
entity route_4--><rect fill="#DAE8FC" filter="url(#f1brfqt9o3l0e2)" height="80.8281" rx="10" ry="10" style="stroke:#6C8EBF;stroke-width:1.5;" width="327" x="185" y="288"/><text fill="#000000" font-family="sans-serif" font-size="14" font-style="italic" lengthAdjust="spacingAndGlyphs" textLength="49" x="324" y="312.5332">«route»</text><text fill="#000000" font-family="sans-serif" font-size="14" lengthAdjust="spacingAndGlyphs" textLength="69" x="195" y="330.1426">mainRoute</text><line style="stroke:#6C8EBF;stroke-width:1.0;stroke-dasharray:1.0,2.0;" x1="186" x2="511" y1="333.2188" y2="333.2188"/><text fill="#000000" font-family="sans-serif" font-size="14" font-style="italic" lengthAdjust="spacingAndGlyphs" textLength="307" x="195" y="351.752">Route which handles processing of the message</text><!--MD5=[4f0b415842f9e61e7c5fcd5cc6e8f8f4]
entity route_0--><rect fill="#DAE8FC" filter="url(#f1brfqt9o3l0e2)" height="80.8281" rx="10" ry="10" style="stroke:#6C8EBF;stroke-width:1.5;" width="293" x="7" y="129"/><text fill="#000000" font-family="sans-serif" font-size="14" font-style="italic" lengthAdjust="spacingAndGlyphs" textLength="49" x="129" y="153.5332">«route»</text><text fill="#000000" font-family="sans-serif" font-size="14" lengthAdjust="spacingAndGlyphs" textLength="98" x="17" y="171.1426">fastTimerRoute</text><line style="stroke:#6C8EBF;stroke-width:1.0;stroke-dasharray:1.0,2.0;" x1="8" x2="299" y1="174.2188" y2="174.2188"/><text fill="#000000" font-family="sans-serif" font-size="14" font-style="italic" lengthAdjust="spacingAndGlyphs" textLength="273" x="17" y="192.752">Route which generates fast periodic events</text><!--MD5=[d73888687ce401f430dedc5c934d6298]
entity route_1--><rect fill="#DAE8FC" filter="url(#f1brfqt9o3l0e2)" height="80.8281" rx="10" ry="10" style="stroke:#6C8EBF;stroke-width:1.5;" width="256" x="99.5" y="447"/><text fill="#000000" font-family="sans-serif" font-size="14" font-style="italic" lengthAdjust="spacingAndGlyphs" textLength="49" x="203" y="471.5332">«route»</text><text fill="#000000" font-family="sans-serif" font-size="14" lengthAdjust="spacingAndGlyphs" textLength="99" x="109.5" y="489.1426">transformRoute</text><line style="stroke:#6C8EBF;stroke-width:1.0;stroke-dasharray:1.0,2.0;" x1="100.5" x2="354.5" y1="492.2188" y2="492.2188"/><text fill="#000000" font-family="sans-serif" font-size="14" font-style="italic" lengthAdjust="spacingAndGlyphs" textLength="236" x="109.5" y="510.752">Route which transforms the message</text><!--MD5=[a1cd7453c7fbd5e2f19e8108a8ac311e]
entity route_3--><rect fill="#DAE8FC" filter="url(#f1brfqt9o3l0e2)" height="80.8281" rx="10" ry="10" style="stroke:#6C8EBF;stroke-width:1.5;" width="298" x="335.5" y="129"/><text fill="#000000" font-family="sans-serif" font-size="14" font-style="italic" lengthAdjust="spacingAndGlyphs" textLength="49" x="460" y="153.5332">«route»</text><text fill="#000000" font-family="sans-serif" font-size="14" lengthAdjust="spacingAndGlyphs" textLength="103" x="345.5" y="171.1426">slowTimerRoute</text><line style="stroke:#6C8EBF;stroke-width:1.0;stroke-dasharray:1.0,2.0;" x1="336.5" x2="632.5" y1="174.2188" y2="174.2188"/><text fill="#000000" font-family="sans-serif" font-size="14" font-style="italic" lengthAdjust="spacingAndGlyphs" textLength="278" x="345.5" y="192.752">Route which generates slow periodic events</text><!--MD5=[07f5bd0b0d843de0afeec9cfd8cc4680]
entity endpoint_0--><path d="M71.5,6 L235.5,6 C240.5,6 240.5,28.6094 240.5,28.6094 C240.5,28.6094 240.5,51.2188 235.5,51.2188 L71.5,51.2188 C66.5,51.2188 66.5,28.6094 66.5,28.6094 C66.5,28.6094 66.5,6 71.5,6 " fill="#F8CECC" filter="url(#f1brfqt9o3l0e2)" style="stroke:#B85450;stroke-width:1.5;"/><path d="M235.5,6 C230.5,6 230.5,28.6094 230.5,28.6094 C230.5,51.2188 235.5,51.2188 235.5,51.2188 " fill="none" style="stroke:#B85450;stroke-width:1.5;"/><text fill="#000000" font-family="sans-serif" font-size="14" font-style="italic" lengthAdjust="spacingAndGlyphs" textLength="120" x="88.5" y="25.5332">«endpoint»«static»</text><text fill="#000000" font-family="sans-serif" font-size="14" lengthAdjust="spacingAndGlyphs" textLength="154" x="71.5" y="43.1426">timer://bar&amp;period=1000</text><!--MD5=[20e5980ebeb016b3d3605857d901d35a]
entity endpoint_3--><path d="M403,6 L566,6 C571,6 571,28.6094 571,28.6094 C571,28.6094 571,51.2188 566,51.2188 L403,51.2188 C398,51.2188 398,28.6094 398,28.6094 C398,28.6094 398,6 403,6 " fill="#F8CECC" filter="url(#f1brfqt9o3l0e2)" style="stroke:#B85450;stroke-width:1.5;"/><path d="M566,6 C561,6 561,28.6094 561,28.6094 C561,51.2188 566,51.2188 566,51.2188 " fill="none" style="stroke:#B85450;stroke-width:1.5;"/><text fill="#000000" font-family="sans-serif" font-size="14" font-style="italic" lengthAdjust="spacingAndGlyphs" textLength="120" x="419.5" y="25.5332">«endpoint»«static»</text><text fill="#000000" font-family="sans-serif" font-size="14" lengthAdjust="spacingAndGlyphs" textLength="153" x="403" y="43.1426">timer://foo&amp;period=5000</text><!--MD5=[3cba7796c0c7fd5ee62401a3901ed43e]
entity dynamic_producer_endpoint_2--><path d="M395.5,465 L545.5,465 C550.5,465 550.5,487.6094 550.5,487.6094 C550.5,487.6094 550.5,510.2188 545.5,510.2188 L395.5,510.2188 C390.5,510.2188 390.5,487.6094 390.5,487.6094 C390.5,487.6094 390.5,465 395.5,465 " fill="#D5E8D4" filter="url(#f1brfqt9o3l0e2)" style="stroke:#82B366;stroke-width:1.5;"/><path d="M545.5,465 C540.5,465 540.5,487.6094 540.5,487.6094 C540.5,510.2188 545.5,510.2188 545.5,510.2188 " fill="none" style="stroke:#82B366;stroke-width:1.5;"/><text fill="#000000" font-family="sans-serif" font-size="14" font-style="italic" lengthAdjust="spacingAndGlyphs" textLength="140" x="395.5" y="484.5332">«endpoint»«dynamic»</text><text fill="#000000" font-family="sans-serif" font-size="14" lengthAdjust="spacingAndGlyphs" textLength="134" x="398.5" y="502.1426">mock://mock-${body}</text><!--MD5=[a1443ed1a1fee7c3a4f8ffe9010d2c64]
link endpoint_0 to route_0--><path codeLine="60" d="M153.5,51.219 C153.5,70.537 153.5,99.401 153.5,123.66 " fill="none" id="endpoint_0-to-route_0" style="stroke:#000000;stroke-width:1.0;"/><polygon fill="#000000" points="153.5,128.761,157.5,119.761,153.5,123.761,149.5,119.761,153.5,128.761" style="stroke:#000000;stroke-width:1.0;"/><text fill="#000000" font-family="sans-serif" font-size="13" lengthAdjust="spacingAndGlyphs" textLength="26" x="154.5" y="95.4951">from</text><!--MD5=[2b154a537dcaf2d8a356270385472900]
link endpoint_3 to route_3--><path codeLine="62" d="M484.5,51.219 C484.5,70.537 484.5,99.401 484.5,123.66 " fill="none" id="endpoint_3-to-route_3" style="stroke:#000000;stroke-width:1.0;"/><polygon fill="#000000" points="484.5,128.761,488.5,119.761,484.5,123.761,480.5,119.761,484.5,128.761" style="stroke:#000000;stroke-width:1.0;"/><text fill="#000000" font-family="sans-serif" font-size="13" lengthAdjust="spacingAndGlyphs" textLength="26" x="485.5" y="95.4951">from</text><!--MD5=[cae841cf579ed96451688e465b7913c1]
link route_3 to route_4--><path codeLine="64" d="M450.181,210.118 C430.692,232.616 406.265,260.815 386.237,283.935 " fill="none" id="route_3-to-route_4" style="stroke:#000000;stroke-width:1.0;"/><polygon fill="#000000" points="382.808,287.895,391.7248,283.7129,386.0824,284.1163,385.6789,278.4739,382.808,287.895" style="stroke:#000000;stroke-width:1.0;"/><text fill="#000000" font-family="sans-serif" font-size="13" lengthAdjust="spacingAndGlyphs" textLength="49" x="422.5" y="254.4951">to / from</text><!--MD5=[119ebd448575bbda3c67d6d83db671d1]
link route_0 to route_4--><path codeLine="66" d="M202.707,210.118 C230.882,232.802 266.255,261.282 295.102,284.508 " fill="none" id="route_0-to-route_4" style="stroke:#000000;stroke-width:1.0;"/><polygon fill="#000000" points="299.309,287.895,294.8077,279.135,295.4146,284.7592,289.7904,285.3661,299.309,287.895" style="stroke:#000000;stroke-width:1.0;"/><text fill="#000000" font-family="sans-serif" font-size="13" lengthAdjust="spacingAndGlyphs" textLength="49" x="258.5" y="254.4951">to / from</text><!--MD5=[bab684cfcedb9a4bfb65e72cdd957b88]
link route_4 to dynamic_producer_endpoint_2--><path codeLine="72" d="M379.286,369.118 C401.573,397.799 431.06,435.7447 450.391,460.6218 " fill="none" id="route_4-to-dynamic_producer_endpoint_2" style="stroke:#000000;stroke-width:1.0;"/><polygon fill="#000000" points="453.641,464.8038,451.276,455.2431,450.5725,460.8561,444.9596,460.1527,453.641,464.8038" style="stroke:#000000;stroke-width:1.0;"/><text fill="#000000" font-family="sans-serif" font-size="13" lengthAdjust="spacingAndGlyphs" textLength="20" x="414.5" y="413.4951">toD</text><!--MD5=[5bda3cce4d5bc95bd9b467195277efbe]
link route_4 to route_1--><path codeLine="74" d="M317.967,369.118 C300.699,391.523 279.073,419.582 261.296,442.6486 " fill="none" id="route_4-to-route_1" style="stroke:#000000;stroke-width:1.0;"/><polygon fill="#000000" points="258.024,446.8949,266.6865,442.2085,261.0764,442.9347,260.3502,437.3247,258.024,446.8949" style="stroke:#000000;stroke-width:1.0;"/><text fill="#000000" font-family="sans-serif" font-size="13" lengthAdjust="spacingAndGlyphs" textLength="73" x="293.5" y="413.4951">enrich / from</text><!--MD5=[070e147efdb8014a00686d644ff8d15a]
@startuml camel-1

skinparam ArrowColor #Black

skinparam rectangle {
  RoundCorner 20
}

skinparam rectangle<<route>> {
  BorderColor #6C8EBF
  BackgroundColor #DAE8FC
}

skinparam queue<<endpoint>> {
}

skinparam queue<<static>> {
  BorderColor #B85450
  BackgroundColor #F8CECC
}

skinparam queue<<dynamic>> {
  BorderColor #82B366
  BackgroundColor #D5E8D4
}



rectangle route_4 <<route>> as "
mainRoute
....
<i>Route which handles processing of the message</i>
"

rectangle route_0 <<route>> as "
fastTimerRoute
....
<i>Route which generates fast periodic events</i>
"

rectangle route_1 <<route>> as "
transformRoute
....
<i>Route which transforms the message</i>
"

rectangle route_3 <<route>> as "
slowTimerRoute
....
<i>Route which generates slow periodic events</i>
"

queue endpoint_0 <<endpoint>><<static>> as "
timer://bar&period=1000
"

queue endpoint_3 <<endpoint>><<static>> as "
timer://foo&period=5000
"

endpoint_0 - -> route_0 : from

endpoint_3 - -> route_3 : from

route_3 - -> route_4 : to / from

route_0 - -> route_4 : to / from

queue dynamic_producer_endpoint_2 <<endpoint>><<dynamic>> as "
mock://mock-${body}
"

route_4 - -> dynamic_producer_endpoint_2 : toD

route_4 - -> route_1 : enrich / from

@enduml

PlantUML version 1.2020.22(Sun Dec 06 10:36:27 CET 2020)
(GPL source distribution)
Java Runtime: OpenJDK Runtime Environment
JVM: OpenJDK 64-Bit Server VM
Default Encoding: Cp1252
Language: fr
Country: FR
--></g></svg>