<?xml version="1.0" encoding="UTF-8" standalone="no"?>
<svg xmlns="http://www.w3.org/2000/svg" contentScriptType="application/ecmascript" contentStyleType="text/css"
     height="539px" preserveAspectRatio="none" style="width:640px;height:539px;" version="1.1" viewBox="0 0 640 539"
     width="640px" zoomAndPan="magnify"><defs><filter height="300%" id="f193xm6m3xvriw" width="300%" x="-1" y="-1"><feGaussianBlur result="blurOut" stdDeviation="2.0"/><feColorMatrix in="blurOut" result="blurOut2" type="matrix" values="0 0 0 0 0 0 0 0 0 0 0 0 0 0 0 0 0 0 .4 0"/><feOffset dx="4.0" dy="4.0" in="blurOut2" result="blurOut3"/><feBlend in="SourceGraphic" in2="blurOut3" mode="normal"/></filter></defs><g><!--MD5=[23087fb8b60a9636ce8eff16cac0701e]
entity route_4--><rect fill="#DAE8FC" filter="url(#f193xm6m3xvriw)" height="80.8281" rx="10" ry="10" style="stroke: #6C8EBF; stroke-width: 1.5;" width="325" x="188" y="288"/><text fill="#000000" font-family="sans-serif" font-size="14" font-style="italic" lengthAdjust="spacingAndGlyphs" textLength="49" x="326" y="312.5332">«route»</text><text fill="#000000" font-family="sans-serif" font-size="14" lengthAdjust="spacingAndGlyphs" textLength="68" x="198" y="330.1426">mainRoute</text><line style="stroke: #6C8EBF; stroke-width: 1.0; stroke-dasharray: 1.0,2.0;" x1="189" x2="512" y1="333.2188" y2="333.2188"/><text fill="#000000" font-family="sans-serif" font-size="14" font-style="italic" lengthAdjust="spacingAndGlyphs" textLength="305" x="198" y="351.752">Route which handles processing of the message</text><!--MD5=[d73888687ce401f430dedc5c934d6298]
entity route_1--><rect fill="#DAE8FC" filter="url(#f193xm6m3xvriw)" height="80.8281" rx="10" ry="10" style="stroke: #6C8EBF; stroke-width: 1.5;" width="291" x="7" y="129"/><text fill="#000000" font-family="sans-serif" font-size="14" font-style="italic" lengthAdjust="spacingAndGlyphs" textLength="49" x="128" y="153.5332">«route»</text><text fill="#000000" font-family="sans-serif" font-size="14" lengthAdjust="spacingAndGlyphs" textLength="97" x="17" y="171.1426">fastTimerRoute</text><line style="stroke: #6C8EBF; stroke-width: 1.0; stroke-dasharray: 1.0,2.0;" x1="8" x2="297" y1="174.2188" y2="174.2188"/><text fill="#000000" font-family="sans-serif" font-size="14" font-style="italic" lengthAdjust="spacingAndGlyphs" textLength="271" x="17" y="192.752">Route which generates fast periodic events</text><!--MD5=[701d2032f2de379f9eeeed4442393f61]
entity route_2--><rect fill="#DAE8FC" filter="url(#f193xm6m3xvriw)" height="80.8281" rx="10" ry="10" style="stroke: #6C8EBF; stroke-width: 1.5;" width="253" x="104" y="447"/><text fill="#000000" font-family="sans-serif" font-size="14" font-style="italic" lengthAdjust="spacingAndGlyphs" textLength="49" x="206" y="471.5332">«route»</text><text fill="#000000" font-family="sans-serif" font-size="14" lengthAdjust="spacingAndGlyphs" textLength="98" x="114" y="489.1426">transformRoute</text><line style="stroke: #6C8EBF; stroke-width: 1.0; stroke-dasharray: 1.0,2.0;" x1="105" x2="356" y1="492.2188" y2="492.2188"/><text fill="#000000" font-family="sans-serif" font-size="14" font-style="italic" lengthAdjust="spacingAndGlyphs" textLength="233" x="114" y="510.752">Route which transforms the message</text><!--MD5=[a1cd7453c7fbd5e2f19e8108a8ac311e]
entity route_3--><rect fill="#DAE8FC" filter="url(#f193xm6m3xvriw)" height="80.8281" rx="10" ry="10" style="stroke: #6C8EBF; stroke-width: 1.5;" width="295" x="333" y="129"/><text fill="#000000" font-family="sans-serif" font-size="14" font-style="italic" lengthAdjust="spacingAndGlyphs" textLength="49" x="456" y="153.5332">«route»</text><text fill="#000000" font-family="sans-serif" font-size="14" lengthAdjust="spacingAndGlyphs" textLength="101" x="343" y="171.1426">slowTimerRoute</text><line style="stroke: #6C8EBF; stroke-width: 1.0; stroke-dasharray: 1.0,2.0;" x1="334" x2="627" y1="174.2188" y2="174.2188"/><text fill="#000000" font-family="sans-serif" font-size="14" font-style="italic" lengthAdjust="spacingAndGlyphs" textLength="275" x="343" y="192.752">Route which generates slow periodic events</text><!--MD5=[20e5980ebeb016b3d3605857d901d35a]
entity endpoint_3--><path d="M415.5,6 L545.5,6 C550.5,6 550.5,28.6094 550.5,28.6094 C550.5,28.6094 550.5,51.2188 545.5,51.2188 L415.5,51.2188 C410.5,51.2188 410.5,28.6094 410.5,28.6094 C410.5,28.6094 410.5,6 415.5,6 " fill="#F8CECC" filter="url(#f193xm6m3xvriw)" style="stroke: #B85450; stroke-width: 1.5;"/><path d="M545.5,6 C540.5,6 540.5,28.6094 540.5,28.6094 C540.5,51.2188 545.5,51.2188 545.5,51.2188 " fill="none" style="stroke: #B85450; stroke-width: 1.5;"/><text fill="#000000" font-family="sans-serif" font-size="14" font-style="italic" lengthAdjust="spacingAndGlyphs" textLength="120" x="415.5" y="25.5332">«endpoint»«static»</text><text fill="#000000" font-family="sans-serif" font-size="14" lengthAdjust="spacingAndGlyphs" textLength="63" x="444" y="43.1426">timer://foo</text><!--MD5=[1c990b2b00937cf072b641e6df32f521]
entity endpoint_1--><path d="M87.5,6 L217.5,6 C222.5,6 222.5,28.6094 222.5,28.6094 C222.5,28.6094 222.5,51.2188 217.5,51.2188 L87.5,51.2188 C82.5,51.2188 82.5,28.6094 82.5,28.6094 C82.5,28.6094 82.5,6 87.5,6 " fill="#F8CECC" filter="url(#f193xm6m3xvriw)" style="stroke: #B85450; stroke-width: 1.5;"/><path d="M217.5,6 C212.5,6 212.5,28.6094 212.5,28.6094 C212.5,51.2188 217.5,51.2188 217.5,51.2188 " fill="none" style="stroke: #B85450; stroke-width: 1.5;"/><text fill="#000000" font-family="sans-serif" font-size="14" font-style="italic" lengthAdjust="spacingAndGlyphs" textLength="120" x="87.5" y="25.5332">«endpoint»«static»</text><text fill="#000000" font-family="sans-serif" font-size="14" lengthAdjust="spacingAndGlyphs" textLength="64" x="115.5" y="43.1426">timer://bar</text><!--MD5=[3cba7796c0c7fd5ee62401a3901ed43e]
entity dynamic_producer_endpoint_2--><path d="M397,465 L546,465 C551,465 551,487.6094 551,487.6094 C551,487.6094 551,510.2188 546,510.2188 L397,510.2188 C392,510.2188 392,487.6094 392,487.6094 C392,487.6094 392,465 397,465 " fill="#D5E8D4" filter="url(#f193xm6m3xvriw)" style="stroke: #82B366; stroke-width: 1.5;"/><path d="M546,465 C541,465 541,487.6094 541,487.6094 C541,510.2188 546,510.2188 546,510.2188 " fill="none" style="stroke: #82B366; stroke-width: 1.5;"/><text fill="#000000" font-family="sans-serif" font-size="14" font-style="italic" lengthAdjust="spacingAndGlyphs" textLength="139" x="397" y="484.5332">«endpoint»«dynamic»</text><text fill="#000000" font-family="sans-serif" font-size="14" lengthAdjust="spacingAndGlyphs" textLength="132" x="400.5" y="502.1426">mock://mock-${body}</text><!--MD5=[2b4ea0b4924d653e7b702e290f5f3800]
link endpoint_1 to route_1--><path codeLine="60" d="M152.5,51.219 C152.5,70.537 152.5,99.401 152.5,123.66 " fill="none" id="endpoint_1-to-route_1" style="stroke: #000000; stroke-width: 1.0;"/><polygon fill="#000000" points="152.5,128.761,156.5,119.761,152.5,123.761,148.5,119.761,152.5,128.761" style="stroke: #000000; stroke-width: 1.0;"/><text fill="#000000" font-family="sans-serif" font-size="13" lengthAdjust="spacingAndGlyphs" textLength="25" x="153.5" y="95.4951">from</text><!--MD5=[2b154a537dcaf2d8a356270385472900]
link endpoint_3 to route_3--><path codeLine="62" d="M480.5,51.219 C480.5,70.537 480.5,99.401 480.5,123.66 " fill="none" id="endpoint_3-to-route_3" style="stroke: #000000; stroke-width: 1.0;"/><polygon fill="#000000" points="480.5,128.761,484.5,119.761,480.5,123.761,476.5,119.761,480.5,128.761" style="stroke: #000000; stroke-width: 1.0;"/><text fill="#000000" font-family="sans-serif" font-size="13" lengthAdjust="spacingAndGlyphs" textLength="25" x="481.5" y="95.4951">from</text><!--MD5=[2ee045fa38a5a531c75206c0a0f3fa90]
link route_1 to route_4--><path codeLine="64" d="M202.464,210.118 C231.072,232.802 266.989,261.282 296.28,284.508 " fill="none" id="route_1-to-route_4" style="stroke: #000000; stroke-width: 1.0;"/><polygon fill="#000000" points="300.552,287.895,295.9852,279.169,296.6342,284.7884,291.0147,285.4375,300.552,287.895" style="stroke: #000000; stroke-width: 1.0;"/><text fill="#000000" font-family="sans-serif" font-size="13" lengthAdjust="spacingAndGlyphs" textLength="11" x="258.5" y="254.4951">to</text><!--MD5=[cae841cf579ed96451688e465b7913c1]
link route_3 to route_4--><path codeLine="66" d="M447.696,210.118 C429.066,232.616 405.717,260.815 386.573,283.935 " fill="none" id="route_3-to-route_4" style="stroke: #000000; stroke-width: 1.0;"/><polygon fill="#000000" points="383.294,287.895,392.1145,283.5133,386.4825,284.0436,385.9523,278.4117,383.294,287.895" style="stroke: #000000; stroke-width: 1.0;"/><text fill="#000000" font-family="sans-serif" font-size="13" lengthAdjust="spacingAndGlyphs" textLength="11" x="419.5" y="254.4951">to</text><!--MD5=[bab684cfcedb9a4bfb65e72cdd957b88]
link route_4 to dynamic_producer_endpoint_2--><path codeLine="72" d="M381.033,369.118 C403.138,397.799 432.383,435.7447 451.556,460.6218 " fill="none" id="route_4-to-dynamic_producer_endpoint_2" style="stroke: #000000; stroke-width: 1.0;"/><polygon fill="#000000" points="454.779,464.8038,452.4547,455.2331,451.7274,460.843,446.1175,460.1157,454.779,464.8038" style="stroke: #000000; stroke-width: 1.0;"/><text fill="#000000" font-family="sans-serif" font-size="13" lengthAdjust="spacingAndGlyphs" textLength="20" x="415.5" y="413.4951">toD</text><!--MD5=[fc952f03cb0bbfc852e9a83159651376]
link route_4 to route_2--><path codeLine="74" d="M320.219,369.118 C303.094,391.523 281.647,419.582 264.017,442.6486 " fill="none" id="route_4-to-route_2" style="stroke: #000000; stroke-width: 1.0;"/><polygon fill="#000000" points="260.771,446.8949,269.4141,442.173,263.8071,442.9223,263.0579,437.3152,260.771,446.8949" style="stroke: #000000; stroke-width: 1.0;"/><text fill="#000000" font-family="sans-serif" font-size="13" lengthAdjust="spacingAndGlyphs" textLength="35" x="295.5" y="413.4951">enrich</text><!--MD5=[ca3a3238667185a2c7d3928288ff187f]
@startuml camel-1

skinparam ArrowColor #Black

skinparam rectangle {
  RoundCorner 20
}

skinparam rectangle<<route>> {
  BorderColor #6C8EBF
  BackgroundColor #DAE8FC
}

skinparam queue<<endpoint>> {
}

skinparam queue<<static>> {
  BorderColor #B85450
  BackgroundColor #F8CECC
}

skinparam queue<<dynamic>> {
  BorderColor #82B366
  BackgroundColor #D5E8D4
}



rectangle route_4 <<route>> as "
mainRoute
....
<i>Route which handles processing of the message</i>
"

rectangle route_1 <<route>> as "
fastTimerRoute
....
<i>Route which generates fast periodic events</i>
"

rectangle route_2 <<route>> as "
transformRoute
....
<i>Route which transforms the message</i>
"

rectangle route_3 <<route>> as "
slowTimerRoute
....
<i>Route which generates slow periodic events</i>
"

queue endpoint_3 <<endpoint>><<static>> as "
timer://foo
"

queue endpoint_1 <<endpoint>><<static>> as "
timer://bar
"

endpoint_1 - -> route_1 : from

endpoint_3 - -> route_3 : from

route_1 - -> route_4 : to

route_3 - -> route_4 : to

queue dynamic_producer_endpoint_2 <<endpoint>><<dynamic>> as "
mock://mock-${body}
"

route_4 - -> dynamic_producer_endpoint_2 : toD

route_4 - -> route_2 : enrich

@enduml

PlantUML version 1.2020.18(Wed Sep 30 21:40:44 CEST 2020)
(GPL source distribution)
Java Runtime: Java(TM) SE Runtime Environment
JVM: Java HotSpot(TM) 64-Bit Server VM
Default Encoding: Cp1252
Language: fr
Country: FR
--></g></svg>