<?xml version="1.0" encoding="UTF-8" standalone="no"?><svg xmlns="http://www.w3.org/2000/svg" xmlns:xlink="http://www.w3.org/1999/xlink" contentScriptType="application/ecmascript" contentStyleType="text/css" height="785px" preserveAspectRatio="none" style="width:645px;height:785px;" version="1.1" viewBox="0 0 645 785" width="645px" zoomAndPan="magnify"><defs><filter height="300%" id="fzgxcra7nj8jn" width="300%" x="-1" y="-1"><feGaussianBlur result="blurOut" stdDeviation="2.0"/><feColorMatrix in="blurOut" result="blurOut2" type="matrix" values="0 0 0 0 0 0 0 0 0 0 0 0 0 0 0 0 0 0 .4 0"/><feOffset dx="4.0" dy="4.0" in="blurOut2" result="blurOut3"/><feBlend in="SourceGraphic" in2="blurOut3" mode="normal"/></filter></defs><g><!--MD5=[23087fb8b60a9636ce8eff16cac0701e]
entity route_4--><rect fill="#DAE8FC" filter="url(#fzgxcra7nj8jn)" height="80.8281" rx="10" ry="10" style="stroke:#6C8EBF;stroke-width:1.5;" width="327" x="190" y="411"/><text fill="#000000" font-family="sans-serif" font-size="14" font-style="italic" lengthAdjust="spacingAndGlyphs" textLength="49" x="329" y="435.5332">«route»</text><text fill="#000000" font-family="sans-serif" font-size="14" lengthAdjust="spacingAndGlyphs" textLength="69" x="200" y="453.1426">mainRoute</text><line style="stroke:#6C8EBF;stroke-width:1.0;stroke-dasharray:1.0,2.0;" x1="191" x2="516" y1="456.2188" y2="456.2188"/><text fill="#000000" font-family="sans-serif" font-size="14" font-style="italic" lengthAdjust="spacingAndGlyphs" textLength="307" x="200" y="474.752">Route which handles processing of the message</text><!--MD5=[4f0b415842f9e61e7c5fcd5cc6e8f8f4]
entity route_0--><rect fill="#DAE8FC" filter="url(#fzgxcra7nj8jn)" height="80.8281" rx="10" ry="10" style="stroke:#6C8EBF;stroke-width:1.5;" width="293" x="7" y="129"/><text fill="#000000" font-family="sans-serif" font-size="14" font-style="italic" lengthAdjust="spacingAndGlyphs" textLength="49" x="129" y="153.5332">«route»</text><text fill="#000000" font-family="sans-serif" font-size="14" lengthAdjust="spacingAndGlyphs" textLength="98" x="17" y="171.1426">fastTimerRoute</text><line style="stroke:#6C8EBF;stroke-width:1.0;stroke-dasharray:1.0,2.0;" x1="8" x2="299" y1="174.2188" y2="174.2188"/><text fill="#000000" font-family="sans-serif" font-size="14" font-style="italic" lengthAdjust="spacingAndGlyphs" textLength="273" x="17" y="192.752">Route which generates fast periodic events</text><!--MD5=[d73888687ce401f430dedc5c934d6298]
entity route_1--><rect fill="#DAE8FC" filter="url(#fzgxcra7nj8jn)" height="80.8281" rx="10" ry="10" style="stroke:#6C8EBF;stroke-width:1.5;" width="256" x="87.5" y="693"/><text fill="#000000" font-family="sans-serif" font-size="14" font-style="italic" lengthAdjust="spacingAndGlyphs" textLength="49" x="191" y="717.5332">«route»</text><text fill="#000000" font-family="sans-serif" font-size="14" lengthAdjust="spacingAndGlyphs" textLength="99" x="97.5" y="735.1426">transformRoute</text><line style="stroke:#6C8EBF;stroke-width:1.0;stroke-dasharray:1.0,2.0;" x1="88.5" x2="342.5" y1="738.2188" y2="738.2188"/><text fill="#000000" font-family="sans-serif" font-size="14" font-style="italic" lengthAdjust="spacingAndGlyphs" textLength="236" x="97.5" y="756.752">Route which transforms the message</text><!--MD5=[a1cd7453c7fbd5e2f19e8108a8ac311e]
entity route_3--><rect fill="#DAE8FC" filter="url(#fzgxcra7nj8jn)" height="80.8281" rx="10" ry="10" style="stroke:#6C8EBF;stroke-width:1.5;" width="298" x="335.5" y="129"/><text fill="#000000" font-family="sans-serif" font-size="14" font-style="italic" lengthAdjust="spacingAndGlyphs" textLength="49" x="460" y="153.5332">«route»</text><text fill="#000000" font-family="sans-serif" font-size="14" lengthAdjust="spacingAndGlyphs" textLength="103" x="345.5" y="171.1426">slowTimerRoute</text><line style="stroke:#6C8EBF;stroke-width:1.0;stroke-dasharray:1.0,2.0;" x1="336.5" x2="632.5" y1="174.2188" y2="174.2188"/><text fill="#000000" font-family="sans-serif" font-size="14" font-style="italic" lengthAdjust="spacingAndGlyphs" textLength="278" x="345.5" y="192.752">Route which generates slow periodic events</text><!--MD5=[15f40c399c0a644fbf2372eb1d4ea3ea]
entity endpoint_4--><path d="M288.5,288 L418.5,288 C423.5,288 423.5,310.6094 423.5,310.6094 C423.5,310.6094 423.5,333.2188 418.5,333.2188 L288.5,333.2188 C283.5,333.2188 283.5,310.6094 283.5,310.6094 C283.5,310.6094 283.5,288 288.5,288 " fill="#F8CECC" filter="url(#fzgxcra7nj8jn)" style="stroke:#B85450;stroke-width:1.5;"/><path d="M418.5,288 C413.5,288 413.5,310.6094 413.5,310.6094 C413.5,333.2188 418.5,333.2188 418.5,333.2188 " fill="none" style="stroke:#B85450;stroke-width:1.5;"/><text fill="#000000" font-family="sans-serif" font-size="14" font-style="italic" lengthAdjust="spacingAndGlyphs" textLength="120" x="288.5" y="307.5332">«endpoint»«static»</text><text fill="#000000" font-family="sans-serif" font-size="14" lengthAdjust="spacingAndGlyphs" textLength="106" x="295.5" y="325.1426">seda://endpoint1</text><!--MD5=[1c990b2b00937cf072b641e6df32f521]
entity endpoint_1--><path d="M150.5,570 L280.5,570 C285.5,570 285.5,592.6094 285.5,592.6094 C285.5,592.6094 285.5,615.2188 280.5,615.2188 L150.5,615.2188 C145.5,615.2188 145.5,592.6094 145.5,592.6094 C145.5,592.6094 145.5,570 150.5,570 " fill="#F8CECC" filter="url(#fzgxcra7nj8jn)" style="stroke:#B85450;stroke-width:1.5;"/><path d="M280.5,570 C275.5,570 275.5,592.6094 275.5,592.6094 C275.5,615.2188 280.5,615.2188 280.5,615.2188 " fill="none" style="stroke:#B85450;stroke-width:1.5;"/><text fill="#000000" font-family="sans-serif" font-size="14" font-style="italic" lengthAdjust="spacingAndGlyphs" textLength="120" x="150.5" y="589.5332">«endpoint»«static»</text><text fill="#000000" font-family="sans-serif" font-size="14" lengthAdjust="spacingAndGlyphs" textLength="110" x="155.5" y="607.1426">direct://endpoint2</text><!--MD5=[07f5bd0b0d843de0afeec9cfd8cc4680]
entity endpoint_0--><path d="M71.5,6 L235.5,6 C240.5,6 240.5,28.6094 240.5,28.6094 C240.5,28.6094 240.5,51.2188 235.5,51.2188 L71.5,51.2188 C66.5,51.2188 66.5,28.6094 66.5,28.6094 C66.5,28.6094 66.5,6 71.5,6 " fill="#F8CECC" filter="url(#fzgxcra7nj8jn)" style="stroke:#B85450;stroke-width:1.5;"/><path d="M235.5,6 C230.5,6 230.5,28.6094 230.5,28.6094 C230.5,51.2188 235.5,51.2188 235.5,51.2188 " fill="none" style="stroke:#B85450;stroke-width:1.5;"/><text fill="#000000" font-family="sans-serif" font-size="14" font-style="italic" lengthAdjust="spacingAndGlyphs" textLength="120" x="88.5" y="25.5332">«endpoint»«static»</text><text fill="#000000" font-family="sans-serif" font-size="14" lengthAdjust="spacingAndGlyphs" textLength="154" x="71.5" y="43.1426">timer://bar&amp;period=1000</text><!--MD5=[20e5980ebeb016b3d3605857d901d35a]
entity endpoint_3--><path d="M403,6 L566,6 C571,6 571,28.6094 571,28.6094 C571,28.6094 571,51.2188 566,51.2188 L403,51.2188 C398,51.2188 398,28.6094 398,28.6094 C398,28.6094 398,6 403,6 " fill="#F8CECC" filter="url(#fzgxcra7nj8jn)" style="stroke:#B85450;stroke-width:1.5;"/><path d="M566,6 C561,6 561,28.6094 561,28.6094 C561,51.2188 566,51.2188 566,51.2188 " fill="none" style="stroke:#B85450;stroke-width:1.5;"/><text fill="#000000" font-family="sans-serif" font-size="14" font-style="italic" lengthAdjust="spacingAndGlyphs" textLength="120" x="419.5" y="25.5332">«endpoint»«static»</text><text fill="#000000" font-family="sans-serif" font-size="14" lengthAdjust="spacingAndGlyphs" textLength="153" x="403" y="43.1426">timer://foo&amp;period=5000</text><!--MD5=[3cba7796c0c7fd5ee62401a3901ed43e]
entity dynamic_producer_endpoint_2--><path d="M325.5,570 L475.5,570 C480.5,570 480.5,592.6094 480.5,592.6094 C480.5,592.6094 480.5,615.2188 475.5,615.2188 L325.5,615.2188 C320.5,615.2188 320.5,592.6094 320.5,592.6094 C320.5,592.6094 320.5,570 325.5,570 " fill="#D5E8D4" filter="url(#fzgxcra7nj8jn)" style="stroke:#82B366;stroke-width:1.5;"/><path d="M475.5,570 C470.5,570 470.5,592.6094 470.5,592.6094 C470.5,615.2188 475.5,615.2188 475.5,615.2188 " fill="none" style="stroke:#82B366;stroke-width:1.5;"/><text fill="#000000" font-family="sans-serif" font-size="14" font-style="italic" lengthAdjust="spacingAndGlyphs" textLength="140" x="325.5" y="589.5332">«endpoint»«dynamic»</text><text fill="#000000" font-family="sans-serif" font-size="14" lengthAdjust="spacingAndGlyphs" textLength="134" x="328.5" y="607.1426">mock://mock-${body}</text><!--MD5=[a1443ed1a1fee7c3a4f8ffe9010d2c64]
link endpoint_0 to route_0--><path codeLine="68" d="M153.5,51.219 C153.5,70.537 153.5,99.401 153.5,123.66 " fill="none" id="endpoint_0-to-route_0" style="stroke:#000000;stroke-width:1.0;"/><polygon fill="#000000" points="153.5,128.761,157.5,119.761,153.5,123.761,149.5,119.761,153.5,128.761" style="stroke:#000000;stroke-width:1.0;"/><text fill="#000000" font-family="sans-serif" font-size="13" lengthAdjust="spacingAndGlyphs" textLength="26" x="154.5" y="95.4951">from</text><!--MD5=[2b4ea0b4924d653e7b702e290f5f3800]
link endpoint_1 to route_1--><path codeLine="70" d="M215.5,615.219 C215.5,634.537 215.5,663.401 215.5,687.6597 " fill="none" id="endpoint_1-to-route_1" style="stroke:#000000;stroke-width:1.0;"/><polygon fill="#000000" points="215.5,692.7612,219.5,683.7612,215.5,687.7612,211.5,683.7612,215.5,692.7612" style="stroke:#000000;stroke-width:1.0;"/><text fill="#000000" font-family="sans-serif" font-size="13" lengthAdjust="spacingAndGlyphs" textLength="26" x="216.5" y="659.4951">from</text><!--MD5=[2b154a537dcaf2d8a356270385472900]
link endpoint_3 to route_3--><path codeLine="72" d="M484.5,51.219 C484.5,70.537 484.5,99.401 484.5,123.66 " fill="none" id="endpoint_3-to-route_3" style="stroke:#000000;stroke-width:1.0;"/><polygon fill="#000000" points="484.5,128.761,488.5,119.761,484.5,123.761,480.5,119.761,484.5,128.761" style="stroke:#000000;stroke-width:1.0;"/><text fill="#000000" font-family="sans-serif" font-size="13" lengthAdjust="spacingAndGlyphs" textLength="26" x="485.5" y="95.4951">from</text><!--MD5=[c0892a2bf9c277594aea063d32428077]
link endpoint_4 to route_4--><path codeLine="74" d="M353.5,333.219 C353.5,352.537 353.5,381.401 353.5,405.66 " fill="none" id="endpoint_4-to-route_4" style="stroke:#000000;stroke-width:1.0;"/><polygon fill="#000000" points="353.5,410.761,357.5,401.761,353.5,405.761,349.5,401.761,353.5,410.761" style="stroke:#000000;stroke-width:1.0;"/><text fill="#000000" font-family="sans-serif" font-size="13" lengthAdjust="spacingAndGlyphs" textLength="26" x="354.5" y="377.4951">from</text><!--MD5=[13c807e99856c639b85958fd043d2038]
link route_3 to endpoint_4--><path codeLine="76" d="M446.961,210.332 C424.611,234.046 396.916,263.433 377.496,284.038 " fill="none" id="route_3-to-endpoint_4" style="stroke:#000000;stroke-width:1.0;"/><polygon fill="#000000" points="373.97,287.78,383.0541,283.9749,377.3997,284.1417,377.2329,278.4873,373.97,287.78" style="stroke:#000000;stroke-width:1.0;"/><text fill="#000000" font-family="sans-serif" font-size="13" lengthAdjust="spacingAndGlyphs" textLength="11" x="420.5" y="254.4951">to</text><!--MD5=[5d332bcc0d080c14faca35e84a6721e8]
link route_0 to endpoint_4--><path codeLine="78" d="M210.544,210.146 C245.209,234.238 288.376,264.239 318.154,284.934 " fill="none" id="route_0-to-endpoint_4" style="stroke:#000000;stroke-width:1.0;"/><polygon fill="#000000" points="322.448,287.919,317.3415,279.4974,318.3426,285.0649,312.775,286.066,322.448,287.919" style="stroke:#000000;stroke-width:1.0;"/><text fill="#000000" font-family="sans-serif" font-size="13" lengthAdjust="spacingAndGlyphs" textLength="11" x="278.5" y="254.4951">to</text><!--MD5=[bab684cfcedb9a4bfb65e72cdd957b88]
link route_4 to dynamic_producer_endpoint_2--><path codeLine="84" d="M366.968,492.332 C374.854,515.652 384.594,544.459 391.541,565.005 " fill="none" id="route_4-to-dynamic_producer_endpoint_2" style="stroke:#000000;stroke-width:1.0;"/><polygon fill="#000000" points="393.156,569.78,394.0631,559.973,391.5547,565.0433,386.4844,562.535,393.156,569.78" style="stroke:#000000;stroke-width:1.0;"/><text fill="#000000" font-family="sans-serif" font-size="13" lengthAdjust="spacingAndGlyphs" textLength="20" x="384.5" y="536.4951">toD</text><!--MD5=[0cf365c4badad55dc88816c5c857cb91]
link route_4 to endpoint_1--><path codeLine="86" d="M313.955,492.332 C290.411,516.046 261.235,545.433 240.779,566.038 " fill="none" id="route_4-to-endpoint_1" style="stroke:#000000;stroke-width:1.0;"/><polygon fill="#000000" points="237.064,569.78,246.2442,566.2129,240.5874,566.2323,240.5679,560.5755,237.064,569.78" style="stroke:#000000;stroke-width:1.0;"/><text fill="#000000" font-family="sans-serif" font-size="13" lengthAdjust="spacingAndGlyphs" textLength="35" x="285.5" y="536.4951">enrich</text><!--MD5=[4a8d0b9a920447bb971c572babb31404]
@startuml camel-1

skinparam ArrowColor #Black

skinparam rectangle {
  RoundCorner 20
}

skinparam rectangle<<route>> {
  BorderColor #6C8EBF
  BackgroundColor #DAE8FC
}

skinparam queue<<endpoint>> {
}

skinparam queue<<static>> {
  BorderColor #B85450
  BackgroundColor #F8CECC
}

skinparam queue<<dynamic>> {
  BorderColor #82B366
  BackgroundColor #D5E8D4
}



rectangle route_4 <<route>> as "
mainRoute
....
<i>Route which handles processing of the message</i>
"

rectangle route_0 <<route>> as "
fastTimerRoute
....
<i>Route which generates fast periodic events</i>
"

rectangle route_1 <<route>> as "
transformRoute
....
<i>Route which transforms the message</i>
"

rectangle route_3 <<route>> as "
slowTimerRoute
....
<i>Route which generates slow periodic events</i>
"

queue endpoint_4 <<endpoint>><<static>> as "
seda://endpoint1
"

queue endpoint_1 <<endpoint>><<static>> as "
direct://endpoint2
"

queue endpoint_0 <<endpoint>><<static>> as "
timer://bar&period=1000
"

queue endpoint_3 <<endpoint>><<static>> as "
timer://foo&period=5000
"

endpoint_0 - -> route_0 : from

endpoint_1 - -> route_1 : from

endpoint_3 - -> route_3 : from

endpoint_4 - -> route_4 : from

route_3 - -> endpoint_4 : to

route_0 - -> endpoint_4 : to

queue dynamic_producer_endpoint_2 <<endpoint>><<dynamic>> as "
mock://mock-${body}
"

route_4 - -> dynamic_producer_endpoint_2 : toD

route_4 - -> endpoint_1 : enrich

@enduml

PlantUML version 1.2020.22(Sun Dec 06 10:36:27 CET 2020)
(GPL source distribution)
Java Runtime: OpenJDK Runtime Environment
JVM: OpenJDK 64-Bit Server VM
Default Encoding: Cp1252
Language: fr
Country: FR
--></g></svg>